<svg width="38" height="37" viewBox="0 0 38 37" fill="none" xmlns="http://www.w3.org/2000/svg">
<path d="M17.2491 31.5226L17.0302 31.9722H17.0302L17.2491 31.5226ZM20.7509 31.5226L20.9698 31.9722H20.9698L20.7509 31.5226ZM21.0421 31.3808L20.8233 30.9313L21.0421 31.3808ZM21.9916 30.7704L21.5777 30.4899L21.9916 30.7704ZM15.7874 29.5837L16.286 29.547L15.7874 29.5837ZM16.9579 31.3808L17.1767 30.9313L16.9579 31.3808ZM16.0084 30.7704L15.5945 31.0509L16.0084 30.7704ZM13.5873 23.0194L13.8674 22.6053L13.5873 23.0194ZM14.3495 23.8833L14.8059 23.6791L14.3495 23.8833ZM14.0955 23.4094L14.4784 23.0879L14.0955 23.4094ZM24.4127 23.0194L24.1326 22.6053L24.4127 23.0194ZM23.6505 23.8833L23.1941 23.6791L23.6505 23.8833ZM23.9045 23.4094L23.5216 23.0879L23.9045 23.4094ZM28 15.4167C28 18.3902 26.4742 21.0218 24.1326 22.6053L24.6928 23.4336C27.2914 21.6764 29 18.7434 29 15.4167H28ZM19 6.66669C23.9832 6.66669 28 10.5967 28 15.4167H29C29 10.0194 24.5102 5.66669 19 5.66669V6.66669ZM10 15.4167C10 10.5967 14.0168 6.66669 19 6.66669V5.66669C13.4898 5.66669 9 10.0194 9 15.4167H10ZM13.8674 22.6053C11.5258 21.0218 10 18.3902 10 15.4167H9C9 18.7434 10.7086 21.6764 13.3072 23.4336L13.8674 22.6053ZM16.286 29.547C16.1367 27.5185 15.6353 25.5329 14.8059 23.6791L13.8931 24.0875C14.6751 25.8355 15.1479 27.7077 15.2887 29.6204L16.286 29.547ZM17.468 31.0731L17.1767 30.9313L16.739 31.8304L17.0302 31.9722L17.468 31.0731ZM20.532 31.0731C19.5649 31.5439 18.4351 31.5439 17.468 31.0731L17.0302 31.9722C18.2737 32.5775 19.7263 32.5775 20.9698 31.9722L20.532 31.0731ZM20.8233 30.9313L20.532 31.0731L20.9698 31.9722L21.261 31.8304L20.8233 30.9313ZM23.1941 23.6791C22.3647 25.5329 21.8633 27.5185 21.714 29.547L22.7113 29.6204C22.8521 27.7077 23.3249 25.8355 24.1069 24.0875L23.1941 23.6791ZM21.261 31.8304C21.5191 31.7047 21.7438 31.5959 21.9206 31.4883C22.1048 31.3761 22.2749 31.2436 22.4055 31.0509L21.5777 30.4899C21.5585 30.5183 21.5203 30.5612 21.4006 30.6341C21.2733 30.7116 21.0983 30.7974 20.8233 30.9313L21.261 31.8304ZM21.714 29.547C21.6896 29.8778 21.6733 30.0935 21.647 30.2554C21.6216 30.4123 21.594 30.4659 21.5777 30.4899L22.4055 31.0509C22.5392 30.8537 22.5984 30.6358 22.6341 30.4155C22.669 30.2003 22.6882 29.9333 22.7113 29.6204L21.714 29.547ZM15.2887 29.6204C15.3118 29.9333 15.331 30.2003 15.3659 30.4155C15.4016 30.6358 15.4608 30.8537 15.5945 31.0509L16.4223 30.4899C16.406 30.4659 16.3784 30.4123 16.353 30.2554C16.3267 30.0935 16.3104 29.8778 16.286 29.547L15.2887 29.6204ZM17.1767 30.9313C16.9017 30.7974 16.7267 30.7116 16.5994 30.6341C16.4797 30.5612 16.4415 30.5183 16.4223 30.4899L15.5945 31.0509C15.7251 31.2436 15.8952 31.3761 16.0794 31.4883C16.2562 31.5959 16.4809 31.7047 16.739 31.8304L17.1767 30.9313ZM13.3072 23.4336C13.6153 23.642 13.6791 23.691 13.7126 23.7309L14.4784 23.0879C14.3321 22.9136 14.1171 22.7741 13.8674 22.6053L13.3072 23.4336ZM14.8059 23.6791C14.7066 23.4571 14.6231 23.2602 14.4784 23.0879L13.7126 23.7309C13.7476 23.7727 13.7736 23.8204 13.8931 24.0875L14.8059 23.6791ZM24.1326 22.6053C23.8829 22.7741 23.6679 22.9136 23.5216 23.0879L24.2874 23.7309C24.3209 23.691 24.3847 23.642 24.6928 23.4336L24.1326 22.6053ZM24.1069 24.0875C24.2264 23.8204 24.2524 23.7727 24.2874 23.7309L23.5216 23.0879C23.3769 23.2602 23.2934 23.4571 23.1941 23.6791L24.1069 24.0875Z" fill="#19CECE"/>
<path d="M22.9583 25.4375V25.4375C20.4126 26.429 17.5874 26.429 15.0417 25.4375V25.4375" stroke="#19CECE"/>
<path d="M11 14V9.75C11 9.05964 10.4404 8.5 9.75 8.5V8.5C9.05964 8.5 8.5 9.05964 8.5 9.75V9.75C8.5 10.4404 9.05964 11 9.75 11H14.25C14.9404 11 15.5 10.4404 15.5 9.75V9.75C15.5 9.05964 14.9404 8.5 14.25 8.5V8.5C13.5596 8.5 13 9.05964 13 9.75V14" stroke="#19CECE" stroke-linecap="round"/>
</svg>
