<svg width="40" height="40" viewBox="0 0 40 40" fill="none" xmlns="http://www.w3.org/2000/svg">
<path fill-rule="evenodd" clip-rule="evenodd" d="M27 26.3483C24.8535 25.4674 22.4522 25 20 25C16.698 25 13.4882 25.8474 10.8685 27.4109C8.6249 28.7499 6.92149 30.55 5.9418 32.5977C5.68186 33.141 6.0326 33.7558 6.62221 33.8787L11.8391 34.9659C16.8358 36.0072 21.9819 36.0819 27 35.19V33H23.3333C21.6765 33 20.3333 31.6569 20.3333 30C20.3333 28.3431 21.6765 27 23.3333 27L27 27V26.3483ZM33 33.9574L33.3777 33.8787C33.8235 33.7858 34.1327 33.4117 34.1447 33H33V33.9574Z" fill="#19CECE"/>
<circle cx="20" cy="13.3333" r="8.33333" fill="#19CECE"/>
</svg>
